<svg version="1.2" xmlns="http://www.w3.org/2000/svg" viewBox="0 0 1125 1257" width="1125" height="1257">
	<title>Saudi-Riyal-Symbol</title>
	<style>
		.s0 { fill: #38a169 } 
	</style>
	<path class="s0" d="m699.6 1113c-20 44.5-33.3 92.8-38.4 143.4l424.5-90.3c20.1-44.4 33.3-92.7 38.4-143.3z"/>
	<path class="s0" d="m1085.7 895.8c20.1-44.5 33.3-92.8 38.4-143.4l-330.6 70.4v-135.2l292.2-62.2c20.1-44.4 33.3-92.7 38.4-143.3l-330.7 70.2v-486.2c-50.6 28.5-95.6 66.4-132.2 111v403.4l-132.3 28.1v-608.6c-50.6 28.4-95.6 66.3-132.2 111v525.7l-295.9 62.9c-20.1 44.4-33.4 92.7-38.4 143.3l334.3-71v170.2l-358.3 76.2c-20.1 44.5-33.3 92.7-38.4 143.4l375-79.7c30.6-6.4 56.8-24.5 73.9-49.3l68.7-102c7.2-10.5 11.3-23.2 11.3-36.9v-150l132.3-28.1v270.4l424.5-90.3z"/>
</svg>